<?xml version="1.0" encoding="UTF-8"?>
<svg id="Layer_1" data-name="Layer 1" xmlns="http://www.w3.org/2000/svg" viewBox="0 0 1080 1109.71">
  <defs>
    <style>
      .cls-1 {
        fill: #817f54;
        stroke-width: 0px;
      }
    </style>
  </defs>
  <path class="cls-1" d="M1079.93,555.19c0,79.44,0,158.87,0,238.31,0,153.28-107.69,283.3-258.27,311.04-17.9,3.3-36.37,4.85-54.58,4.9-151.45.38-302.9.28-454.34.2-151.64-.08-283.85-112.53-308.22-262.46-2.69-16.53-4.24-33.44-4.27-50.18C-.07,635.65-.02,474.3.07,312.95.16,157.77,117.41,23.8,271.17,3.24c13.2-1.77,26.61-2.88,39.92-2.9,152.44-.2,304.88-.66,457.31.02,151.73.67,281.7,111.64,306.91,261.16,2.91,17.23,4.32,34.91,4.42,52.39.46,80.42.2,160.85.2,241.28ZM996.8,555.17c0-79.44.2-158.88-.18-238.31-.07-15.26-1.04-30.79-4-45.71-21.97-110.93-116.2-187.81-229.42-187.84-127.45-.03-254.89-.14-382.34,0-30.91.04-62.05-1.29-92.69,1.85-115.48,11.8-204.78,111.65-204.94,227.8-.21,161.1-.15,322.21.12,483.31.02,14.02,1.24,28.27,3.98,42.01,22.19,111.25,115.73,188.1,229.13,188.26,148.97.21,297.95.23,446.92-.19,17.43-.05,35.24-1.7,52.22-5.52,107.37-24.19,181.16-117.24,181.2-227.34.02-79.44,0-158.88,0-238.31Z"/>
  <path class="cls-1" d="M541.52,848.11c-164.35-.32-297.57-133.68-297.35-297.67.22-164.56,134.02-297.88,298.42-297.36,164.15.52,297.15,134.36,296.54,298.42-.61,164.03-133.96,296.93-297.6,296.61ZM345.63,550.8c-.13,107.03,86.81,194.51,193.62,194.82,107.47.31,195.5-86.77,195.72-193.6.22-108.14-86.36-195.45-194.12-195.75-107.93-.3-195.09,86.55-195.22,194.53Z"/>
  <path class="cls-1" d="M773.51,248.59c.03-39.11,31.13-70.27,70.17-70.3,39.22-.04,71.09,31.84,70.73,70.73-.37,38.79-32.1,70.24-70.78,70.15-38.78-.09-70.15-31.67-70.11-70.58Z"/>
</svg>