<?xml version="1.0" encoding="utf-8"?>
<!-- Generator: Adobe Illustrator 27.3.0, SVG Export Plug-In . SVG Version: 6.00 Build 0)  -->
<svg version="1.1" id="Layer_1" xmlns="http://www.w3.org/2000/svg" xmlns:xlink="http://www.w3.org/1999/xlink" x="0px" y="0px"
	 viewBox="0 0 360 360" style="enable-background:new 0 0 360 360;" xml:space="preserve">
<style type="text/css">
	.st0{fill:#CCC9E7;}
	.st1{fill:#2C2B3C;}
</style>
<circle class="st0" cx="180.2" cy="180.3" r="166.8"/>
<g>
	
		<rect x="173.5" y="100.8" transform="matrix(0.7071 -0.7071 0.7071 0.7071 -24.5881 162.0972)" class="st1" width="19.8" height="19.8"/>
	<path class="st1" d="M136.7,201.9l6.7-78.1l-65.2,46.1l-2.2,15l10.1,7l-17.2,52.4h67.2l0.7-32.7l-50.3,17.5l3.3-9.8L136.7,201.9z
		 M129.6,185l-0.8,7.4l-35.3,14.9l2.4-7.2L129.6,185z"/>
	<polygon class="st1" points="160.8,145.1 159.4,123.5 148.3,123.5 142.1,244.4 168.6,244.4 165.3,159.5 196.2,162.7 197,126.8 
		170.6,130 	"/>
	<polygon class="st1" points="224.1,130 214.3,145.1 213,123.5 201.9,123.5 197.5,244.4 222.2,244.4 218.9,159.5 224.1,160.1 
		232.8,244.4 275.3,244.4 266.8,126.8 	"/>
	<polygon class="st1" points="173.3,244.4 190.3,244.4 195.6,167.3 171.4,165 	"/>
</g>
</svg>
