<?xml version="1.0" encoding="utf-8"?>
<!-- Generator: Adobe Illustrator 27.3.1, SVG Export Plug-In . SVG Version: 6.00 Build 0)  -->
<svg version="1.1" id="Layer_1" xmlns="http://www.w3.org/2000/svg" xmlns:xlink="http://www.w3.org/1999/xlink" x="0px" y="0px"
	 viewBox="0 0 1563.1 964.8" style="enable-background:new 0 0 1563.1 964.8;" xml:space="preserve">
<style type="text/css">
	.st0{fill:#2C2B3C;}
</style>
<g>
	
		<image style="overflow:visible;opacity:0.75;" width="1594" height="929" xlink:href="87C5C6C8.png"  transform="matrix(1 0 0 1 -24 -6.2)">
	</image>
	<g>
		<g>
			<path class="st0" d="M682,116.6c12.5-9.1,24-19.6,34.6-30.9c63.1-67.2,130.3-110,275.1-70.4c100,27.3,132.6,113.9,219.8,133.2
				s139.2,18.2,199.7,10.2c60.5-8,138.7,10.3,151.6,100.9c6.5,90.6-99,124.3-129.4,171c-30.4,46.7,6.1,115.3-20.5,165.9
				c-26.6,50.6-96.8,13.6-157.5,25.3c-60.7,11.7-52.7,90-64.2,159.9c-6.2,37.6-41.7,91.9-95.9,110.5c-58,19.9-132.9-9.1-181.5-46.5
				C733.6,706.9,706.6,862.5,636.5,859c-54.3-2.8-48.5-35.6-104.8-74c-42.8-24.4-103.1-20.1-167,54.5s-193.4,73.6-254.8-4
				c-64.7-87.4,35.6-145.6-38.9-240.9c-5.7-7.3-10.5-15.4-16.8-22.2C-68.5,438.5,39.5,326.6,158.8,350.2
				C255,369.2,316.9,300,327.5,236C353,81.1,553.2,210.6,682,116.6L682,116.6z"/>
		</g>
	</g>
</g>
<g>
	
		<image style="overflow:visible;opacity:0.75;" width="107" height="107" xlink:href="87C5C6C9.png"  transform="matrix(1 0 0 1 1178 829.8)">
	</image>
	<g>
		<g>
			<circle class="st0" cx="1240.1" cy="874.7" r="38"/>
		</g>
	</g>
</g>
<g>
	
		<image style="overflow:visible;opacity:0.75;" width="107" height="107" xlink:href="87C5C6CA.png"  transform="matrix(1 0 0 1 1443 431.8)">
	</image>
	<g>
		<g>
			<circle class="st0" cx="1505.4" cy="476.6" r="38"/>
		</g>
	</g>
</g>
<g>
	
		<image style="overflow:visible;opacity:0.75;" width="114" height="114" xlink:href="87C5C6CB.png"  transform="matrix(1 0 0 1 265 39.8)">
	</image>
	<g>
		<g>
			<circle class="st0" cx="331.1" cy="87.9" r="41.6"/>
		</g>
	</g>
</g>
<g>
	
		<image style="overflow:visible;opacity:0.75;" width="177" height="149" xlink:href="87C5C6CC.png"  transform="matrix(1 0 0 1 383 806.8)">
	</image>
	<g>
		<g>
			<path class="st0" d="M552.8,881.4c2.9,29.8-25.8,57.9-62.7,47.2s-88.4-63.7-81.6-87.5s42.3-34.5,79.2-23.8
				S550.5,856.7,552.8,881.4L552.8,881.4z"/>
		</g>
	</g>
</g>
<g>
	
		<image style="overflow:visible;opacity:0.75;" width="183" height="132" xlink:href="87C5C6C5.png"  transform="matrix(1 0 0 1 460 -1.2)">
	</image>
	<g>
		<g>
			<path class="st0" d="M497.5,90.2c-21.4-20.9-17.6-60.9,17.4-76.5S623.6,5.3,633.8,28s-10.1,53.7-45.2,69.3
				C553.6,113,515.3,107.5,497.5,90.2L497.5,90.2z"/>
		</g>
	</g>
</g>
<g>
	
		<image style="overflow:visible;opacity:0.75;" width="190" height="187" xlink:href="87C5C6C6.png"  transform="matrix(1 0 0 1 1232 660.8)">
	</image>
	<g>
		<g>
			<path class="st0" d="M1392.1,693.9c36.9,37.7,21.8,107.7,6.8,122.3s-71.9,7.6-108.8-30.1s-39.8-91.8-24.8-106.5
				S1355.2,656.2,1392.1,693.9L1392.1,693.9z"/>
		</g>
	</g>
</g>
<g>
	
		<image style="overflow:visible;opacity:0.75;" width="225" height="161" xlink:href="87C5C6C7.png"  transform="matrix(1 0 0 1 690 828.8)">
	</image>
	<g>
		<g>
			<path class="st0" d="M715,895.5c4.9-35.2,38.2-65.2,81.4-59.2s117.1,41.8,112.2,77s-86.8,56.5-129.9,50.5
				C735.5,957.8,710.1,930.7,715,895.5L715,895.5z"/>
		</g>
	</g>
</g>
<g>
	
		<image style="overflow:visible;opacity:0.75;" width="229" height="229" xlink:href="87C5C6D1.png"  transform="matrix(1 0 0 1 56 100.8)">
	</image>
	<g>
		<g>
			<path class="st0" d="M125.4,142.7c40.2-33.7,80.4-55.3,121.7-6.1s42.3,116.5,2.2,150.2c-40.2,33.7-106.2,21.2-147.6-28.1
				S85.3,176.5,125.4,142.7L125.4,142.7z"/>
		</g>
	</g>
</g>
</svg>
