<?xml version="1.0" encoding="utf-8"?>
<!-- Generator: Adobe Illustrator 27.3.1, SVG Export Plug-In . SVG Version: 6.00 Build 0)  -->
<svg version="1.1" id="Layer_1" xmlns="http://www.w3.org/2000/svg" xmlns:xlink="http://www.w3.org/1999/xlink" x="0px" y="0px"
	 viewBox="0 0 535 1272.2" style="enable-background:new 0 0 535 1272.2;" xml:space="preserve">
<style type="text/css">
	.st0{fill:#2C2B3C;}
</style>
<g>
	<path class="st0" d="M345.6,1201.3c-40.2,33.7-80.4,55.3-121.7,6.1s-42.3-116.5-2.2-150.2c40.2-33.7,106.2-21.2,147.6,28.1
		S385.7,1167.6,345.6,1201.3z"/>
</g>
<circle class="st0" cx="464.6" cy="1200.5" r="37.8"/>
<path class="st0" d="M77.5,1199.8c-20.7-6.6-40.4-34.1-42.7-67.7c-2.2-33.6,13.6-62,35.2-63.4s57.4,52.7,59.6,86.3
	S102.4,1207.8,77.5,1199.8L77.5,1199.8z"/>
<path class="st0" d="M528.9,74.9L528.9,74.9V63.9H6.5v11.1l0,0v930.7c77.2,43.1,140,32.3,207,7.2c14.5-5.4,29.5-9.8,44.7-12.4
	c105.6-18.3,195.4,68.3,270.7,88.2V74.9z"/>
</svg>
