<?xml version="1.0" encoding="utf-8"?>
<!-- Generator: Adobe Illustrator 27.4.0, SVG Export Plug-In . SVG Version: 6.00 Build 0)  -->
<svg version="1.1" id="Layer_1" xmlns="http://www.w3.org/2000/svg" xmlns:xlink="http://www.w3.org/1999/xlink" x="0px" y="0px"
	 viewBox="0 0 1563.1 964.8" style="enable-background:new 0 0 1563.1 964.8;" xml:space="preserve">
<style type="text/css">
	.st0{fill:#FFF0ED;}
	.st1{fill:#033C59;}
	.st2{fill:#97ABB5;}
</style>
<g>
	<g>
		<g>
			<path class="st0" d="M686.9,113.6c12.5-9.1,24-19.6,34.6-30.9c63.1-67.2,130.3-110,275.1-70.4c100,27.3,132.6,113.9,219.8,133.2
				s139.2,18.2,199.7,10.2s138.7,10.3,151.6,100.9c6.5,90.6-99,124.3-129.4,171s6.1,115.3-20.5,165.9s-96.8,13.6-157.5,25.3
				s-52.7,90-64.2,159.9c-6.2,37.6-41.7,91.9-95.9,110.5c-58,19.9-132.9-9.1-181.5-46.5C738.5,703.9,711.5,859.5,641.4,856
				c-54.3-2.8-48.5-35.6-104.8-74c-42.8-24.4-103.1-20.1-167,54.5s-193.4,73.6-254.8-4c-64.7-87.4,35.6-145.6-38.9-240.9
				c-5.7-7.3-10.5-15.4-16.8-22.2C-63.6,435.5,44.4,323.6,163.7,347.2c96.2,19,158.1-50.2,168.7-114.2
				C357.9,78.1,558.1,207.6,686.9,113.6L686.9,113.6z"/>
		</g>
	</g>
	<g>
		<g>
			<circle class="st0" cx="1245" cy="871.7" r="38"/>
		</g>
	</g>
	<g>
		<g>
			<circle class="st0" cx="1510.3" cy="473.6" r="38"/>
		</g>
	</g>
	<g>
		<g>
			<circle class="st0" cx="336" cy="84.9" r="41.6"/>
		</g>
	</g>
	<g>
		<g>
			<path class="st0" d="M557.7,878.4c2.9,29.8-25.8,57.9-62.7,47.2s-88.4-63.7-81.6-87.5s42.3-34.5,79.2-23.8
				C529.5,825,555.4,853.7,557.7,878.4L557.7,878.4z"/>
		</g>
	</g>
	<g>
		<g>
			<path class="st0" d="M502.4,87.2c-21.4-20.9-17.6-60.9,17.4-76.5S628.5,2.3,638.7,25s-10.1,53.7-45.2,69.3
				C558.5,110,520.2,104.5,502.4,87.2L502.4,87.2z"/>
		</g>
	</g>
	<g>
		<g>
			<path class="st0" d="M1397,690.9c36.9,37.7,21.8,107.7,6.8,122.3s-71.9,7.6-108.8-30.1s-39.8-91.8-24.8-106.5
				S1360.1,653.2,1397,690.9L1397,690.9z"/>
		</g>
	</g>
	<g>
		<g>
			<path class="st0" d="M719.9,892.5c4.9-35.2,38.2-65.2,81.4-59.2s117.1,41.8,112.2,77s-86.8,56.5-129.9,50.5
				C740.4,954.8,715,927.7,719.9,892.5L719.9,892.5z"/>
		</g>
	</g>
	<g>
		<g>
			<path class="st0" d="M130.3,139.7c40.2-33.7,80.4-55.3,121.7-6.1s42.3,116.5,2.2,150.2C214,317.5,148,305,106.6,255.7
				S90.2,173.5,130.3,139.7L130.3,139.7z"/>
		</g>
	</g>
</g>
<g>
	<g>
		<g>
			<path class="st1" d="M679,121.5c12.5-9.1,24-19.6,34.6-30.9c63.1-67.2,130.3-110,275.1-70.4c100,27.3,132.6,113.9,219.8,133.2
				s139.2,18.2,199.7,10.2s138.7,10.3,151.6,100.9c6.5,90.6-99,124.3-129.4,171s6.1,115.3-20.5,165.9s-96.8,13.6-157.5,25.3
				s-52.7,90-64.2,159.9c-6.2,37.6-41.7,91.9-95.9,110.5c-58,19.9-132.9-9.1-181.5-46.5c-180.2-138.8-207.2,16.8-277.3,13.3
				c-54.3-2.8-48.5-35.6-104.8-74c-42.8-24.4-103.1-20.1-167,54.5s-193.4,73.6-254.8-4C42.2,753,142.5,694.8,68,599.5
				c-5.7-7.3-10.5-15.4-16.8-22.2C-71.5,443.4,36.5,331.5,155.8,355.1c96.2,19,158.1-50.2,168.7-114.2C350,86,550.2,215.5,679,121.5
				L679,121.5z"/>
		</g>
	</g>
	<g>
		<g>
			<circle class="st1" cx="1237.1" cy="879.6" r="38"/>
		</g>
	</g>
	<g>
		<g>
			<circle class="st1" cx="1502.4" cy="481.5" r="38"/>
		</g>
	</g>
	<g>
		<g>
			<circle class="st1" cx="328.1" cy="92.8" r="41.6"/>
		</g>
	</g>
	<g>
		<g>
			<path class="st1" d="M549.8,886.3c2.9,29.8-25.8,57.9-62.7,47.2s-88.4-63.7-81.6-87.5s42.3-34.5,79.2-23.8
				S547.5,861.6,549.8,886.3L549.8,886.3z"/>
		</g>
	</g>
	<g>
		<g>
			<path class="st1" d="M494.5,95.1c-21.4-20.9-17.6-60.9,17.4-76.5s108.7-8.4,118.9,14.3s-10.1,53.7-45.2,69.3
				C550.6,117.9,512.3,112.4,494.5,95.1L494.5,95.1z"/>
		</g>
	</g>
	<g>
		<g>
			<path class="st1" d="M1389.1,698.8c36.9,37.7,21.8,107.7,6.8,122.3s-71.9,7.6-108.8-30.1s-39.8-91.8-24.8-106.5
				S1352.2,661.1,1389.1,698.8L1389.1,698.8z"/>
		</g>
	</g>
	<g>
		<g>
			<path class="st1" d="M712,900.4c4.9-35.2,38.2-65.2,81.4-59.2s117.1,41.8,112.2,77s-86.8,56.5-129.9,50.5
				C732.5,962.7,707.1,935.6,712,900.4L712,900.4z"/>
		</g>
	</g>
	<g>
		<g>
			<path class="st1" d="M122.4,147.6c40.2-33.7,80.4-55.3,121.7-6.1s42.3,116.5,2.2,150.2c-40.2,33.7-106.2,21.2-147.6-28.1
				S82.3,181.4,122.4,147.6L122.4,147.6z"/>
		</g>
	</g>
</g>
<g>
	<g>
		<g>
			<path class="st2" d="M682,116.6c12.5-9.1,24-19.6,34.6-30.9c63.1-67.2,130.3-110,275.1-70.4c100,27.3,132.6,113.9,219.8,133.2
				s139.2,18.2,199.7,10.2s138.7,10.3,151.6,100.9c6.5,90.6-99,124.3-129.4,171s6.1,115.3-20.5,165.9s-96.8,13.6-157.5,25.3
				s-52.7,90-64.2,159.9c-6.2,37.6-41.7,91.9-95.9,110.5c-58,19.9-132.9-9.1-181.5-46.5C733.6,706.9,706.6,862.5,636.5,859
				c-54.3-2.8-48.5-35.6-104.8-74c-42.8-24.4-103.1-20.1-167,54.5s-193.4,73.6-254.8-4C45.2,748.1,145.5,689.9,71,594.6
				c-5.7-7.3-10.5-15.4-16.8-22.2C-68.5,438.5,39.5,326.6,158.8,350.2C255,369.2,316.9,300,327.5,236
				C353,81.1,553.2,210.6,682,116.6L682,116.6z"/>
		</g>
	</g>
	<g>
		<g>
			<circle class="st2" cx="1240.1" cy="874.7" r="38"/>
		</g>
	</g>
	<g>
		<g>
			<circle class="st2" cx="1505.4" cy="476.6" r="38"/>
		</g>
	</g>
	<g>
		<g>
			<circle class="st2" cx="331.1" cy="87.9" r="41.6"/>
		</g>
	</g>
	<g>
		<g>
			<path class="st2" d="M552.8,881.4c2.9,29.8-25.8,57.9-62.7,47.2s-88.4-63.7-81.6-87.5s42.3-34.5,79.2-23.8
				S550.5,856.7,552.8,881.4L552.8,881.4z"/>
		</g>
	</g>
	<g>
		<g>
			<path class="st2" d="M497.5,90.2c-21.4-20.9-17.6-60.9,17.4-76.5S623.6,5.3,633.8,28s-10.1,53.7-45.2,69.3
				C553.6,113,515.3,107.5,497.5,90.2L497.5,90.2z"/>
		</g>
	</g>
	<g>
		<g>
			<path class="st2" d="M1392.1,693.9c36.9,37.7,21.8,107.7,6.8,122.3s-71.9,7.6-108.8-30.1s-39.8-91.8-24.8-106.5
				S1355.2,656.2,1392.1,693.9L1392.1,693.9z"/>
		</g>
	</g>
	<g>
		<g>
			<path class="st2" d="M715,895.5c4.9-35.2,38.2-65.2,81.4-59.2s117.1,41.8,112.2,77s-86.8,56.5-129.9,50.5
				C735.5,957.8,710.1,930.7,715,895.5L715,895.5z"/>
		</g>
	</g>
	<g>
		<g>
			<path class="st2" d="M125.4,142.7c40.2-33.7,80.4-55.3,121.7-6.1s42.3,116.5,2.2,150.2c-40.2,33.7-106.2,21.2-147.6-28.1
				S85.3,176.5,125.4,142.7L125.4,142.7z"/>
		</g>
	</g>
</g>
</svg>
