<?xml version="1.0" encoding="utf-8"?>
<!-- Generator: Adobe Illustrator 27.3.1, SVG Export Plug-In . SVG Version: 6.00 Build 0)  -->
<svg version="1.1" id="Layer_1" xmlns="http://www.w3.org/2000/svg" xmlns:xlink="http://www.w3.org/1999/xlink" x="0px" y="0px"
	 viewBox="0 0 360 368.9" style="enable-background:new 0 0 360 368.9;" xml:space="preserve">
<style type="text/css">
	.st0{clip-path:url(#SVGID_00000039125816347457827760000016541124497323943093_);fill:#2C2B3C;}
</style>
<g>
	<defs>
		
			<rect id="SVGID_1_" x="-1" y="1.9" transform="matrix(-1 -5.030344e-11 5.030344e-11 -1 358.7191 367.618)" width="360.8" height="363.8"/>
	</defs>
	<clipPath id="SVGID_00000035489878026687820810000002062399178959142073_">
		<use xlink:href="#SVGID_1_"  style="overflow:visible;"/>
	</clipPath>
	<path style="clip-path:url(#SVGID_00000035489878026687820810000002062399178959142073_);fill:#2C2B3C;" d="M-39.6,140.5
		c12.4,0.4,23.6,0,37.4-3V0.6h361.9v158.5c25,4.4,41.4,30.3,15.8,64.3c-1.7,2.2-2.9,4.8-4.3,7.1c-19.3,30.5,12.2,44.8-4.5,72.7
		c-15.9,24.9-54.4,29-75.5,8.7c-21.2-20.3-39.2-19.8-51.2-11.3c-15.6,13.1-12.9,22.6-28.9,25.1c-20.7,3.1-33.3-42.3-82.7,4.2
		c-13.3,12.5-34.7,23.4-52.5,19.2c-16.6-3.9-28.8-19-31.7-30c-5.5-20.4-5.4-43.9-23.8-45.6c-18.4-1.7-38.1,11.4-47.5-2.9
		c-9.4-14.2-0.6-35.7-11-48.7s-42.7-19.9-43.5-47C-80.5,147.7-57.8,139.9-39.6,140.5z"/>
	
		<circle style="clip-path:url(#SVGID_00000035489878026687820810000002062399178959142073_);fill:#2C2B3C;" cx="46.6" cy="353.4" r="10.3"/>
	
		<circle style="clip-path:url(#SVGID_00000035489878026687820810000002062399178959142073_);fill:#2C2B3C;" cx="325.4" cy="343.6" r="11.3"/>
	<path style="clip-path:url(#SVGID_00000035489878026687820810000002062399178959142073_);fill:#2C2B3C;" d="M16.6,324.9
		c-6.4-2-12.5-10.6-13.2-21c-0.7-10.4,4.2-19.2,10.9-19.6S32,300.6,32.7,311C33.4,321.4,24.3,327.4,16.6,324.9L16.6,324.9z"/>
	<path style="clip-path:url(#SVGID_00000035489878026687820810000002062399178959142073_);fill:#2C2B3C;" d="M178.3,324.6
		c6.1,7.5,4,17.4-5.2,24.8c-9.2,7.4-31.2,14-37.3,6.5c-6.1-7.5,6.1-26.2,15.3-33.6C160.3,314.8,172.2,317.1,178.3,324.6L178.3,324.6
		z"/>
	<path style="clip-path:url(#SVGID_00000035489878026687820810000002062399178959142073_);fill:#2C2B3C;" d="M276.5,314.8
		c10.9,9.2,17.7,18.1,6.4,31.5c-11.2,13.4-29.2,16.8-40.1,7.6c-10.9-9.2-10.6-27.4,0.6-40.8C254.7,299.8,265.6,305.6,276.5,314.8
		L276.5,314.8z"/>
</g>
</svg>
