<?xml version="1.0" encoding="utf-8"?>
<!-- Generator: Adobe Illustrator 27.4.0, SVG Export Plug-In . SVG Version: 6.00 Build 0)  -->
<svg version="1.1" id="Layer_1" xmlns="http://www.w3.org/2000/svg" xmlns:xlink="http://www.w3.org/1999/xlink" x="0px" y="0px"
	 viewBox="0 0 360.8 1301.1" style="enable-background:new 0 0 360.8 1301.1;" xml:space="preserve">
<style type="text/css">
	.st0{clip-path:url(#SVGID_00000157294173616411254480000005377138331301176961_);}
	.st1{clip-path:url(#SVGID_00000124132348551607717470000017043505959930789306_);}
	.st2{fill:#FFF0ED;}
	.st3{clip-path:url(#SVGID_00000126288929279725480640000018420274332378124697_);}
	.st4{clip-path:url(#SVGID_00000044880823770444697580000004103367936476663465_);}
	.st5{clip-path:url(#SVGID_00000142160088996274179930000013926665824465738120_);}
	.st6{clip-path:url(#SVGID_00000027594241734138830730000007713040290235502270_);}
	.st7{clip-path:url(#SVGID_00000157294173616411254480000005377138331301176961_);fill:#FFF0ED;}
	.st8{clip-path:url(#SVGID_00000157294173616411254480000005377138331301176961_);fill:none;}
	.st9{clip-path:url(#SVGID_00000026137375384864561940000008163059854111701144_);}
	.st10{clip-path:url(#SVGID_00000002351120757753739760000002704448563102512822_);}
	.st11{clip-path:url(#SVGID_00000130637780639101069670000001444607256800162969_);}
	.st12{clip-path:url(#SVGID_00000130638513917982107290000004832138646652687794_);}
</style>
<g>
	<defs>
		<rect id="SVGID_1_" x="-0.6" y="-737.4" width="361.4" height="2313.7"/>
	</defs>
	<clipPath id="SVGID_00000150791331473039107000000018371924021827744949_">
		<use xlink:href="#SVGID_1_"  style="overflow:visible;"/>
	</clipPath>
	<g style="clip-path:url(#SVGID_00000150791331473039107000000018371924021827744949_);">
		<g>
			<g>
				<g>
					<defs>
						<rect id="SVGID_00000157306701284919597310000000762661753997046696_" y="-671.1" width="360.8" height="1429.6"/>
					</defs>
					<clipPath id="SVGID_00000170243238118540016050000006227273466330904229_">
						<use xlink:href="#SVGID_00000157306701284919597310000000762661753997046696_"  style="overflow:visible;"/>
					</clipPath>
					<g style="clip-path:url(#SVGID_00000170243238118540016050000006227273466330904229_);">
						<circle class="st2" cx="47.7" cy="746.2" r="10.3"/>
					</g>
				</g>
			</g>
		</g>
	</g>
	<g style="clip-path:url(#SVGID_00000150791331473039107000000018371924021827744949_);">
		<g>
			<g>
				<g>
					<defs>
						<rect id="SVGID_00000173879610383032292060000010963976095653065857_" y="-671.1" width="360.8" height="1429.6"/>
					</defs>
					<clipPath id="SVGID_00000024720503107918618170000010021025653715345578_">
						<use xlink:href="#SVGID_00000173879610383032292060000010963976095653065857_"  style="overflow:visible;"/>
					</clipPath>
					<g style="clip-path:url(#SVGID_00000024720503107918618170000010021025653715345578_);">
						<circle class="st2" cx="326.5" cy="736.4" r="11.3"/>
					</g>
				</g>
			</g>
		</g>
	</g>
	<g style="clip-path:url(#SVGID_00000150791331473039107000000018371924021827744949_);">
		<g>
			<g>
				<g>
					<defs>
						<rect id="SVGID_00000133502621335279454420000003208261013516020892_" x="-302.6" y="-434.8" width="360.8" height="1429.6"/>
					</defs>
					<clipPath id="SVGID_00000080926072185849324090000015299093464025777283_">
						<use xlink:href="#SVGID_00000133502621335279454420000003208261013516020892_"  style="overflow:visible;"/>
					</clipPath>
					<g style="clip-path:url(#SVGID_00000080926072185849324090000015299093464025777283_);">
						
							<ellipse transform="matrix(9.089777e-03 -1 1 9.089777e-03 -948.9771 987.7574)" class="st2" cx="23.9" cy="972.7" rx="11.3" ry="11.3"/>
					</g>
				</g>
			</g>
		</g>
	</g>
	<g style="clip-path:url(#SVGID_00000150791331473039107000000018371924021827744949_);">
		<g>
			<g>
				<g>
					<defs>
						<rect id="SVGID_00000039848991807218258930000001942407438077474721_" y="-671.1" width="360.8" height="1429.6"/>
					</defs>
					<clipPath id="SVGID_00000088823621774241027480000002552930601286225295_">
						<use xlink:href="#SVGID_00000039848991807218258930000001942407438077474721_"  style="overflow:visible;"/>
					</clipPath>
					<g style="clip-path:url(#SVGID_00000088823621774241027480000002552930601286225295_);">
						<path class="st2" d="M17.7,717.7c-6.4-2-12.5-10.6-13.2-21s4.2-19.2,10.9-19.6s17.7,16.3,18.4,26.7S25.4,720.2,17.7,717.7
							L17.7,717.7z"/>
					</g>
				</g>
			</g>
		</g>
	</g>
	<g style="clip-path:url(#SVGID_00000150791331473039107000000018371924021827744949_);">
		<g>
			<g>
				<defs>
					<rect id="SVGID_00000020399715132080790220000007640181106204684695_" y="-671.1" width="360.8" height="1429.6"/>
				</defs>
				<clipPath id="SVGID_00000024724182574538003550000014572560626224010675_">
					<use xlink:href="#SVGID_00000020399715132080790220000007640181106204684695_"  style="overflow:visible;"/>
				</clipPath>
				<g style="clip-path:url(#SVGID_00000024724182574538003550000014572560626224010675_);">
					<path class="st2" d="M179.4,717.4c6.1,7.5,4,17.4-5.2,24.8s-31.2,14-37.3,6.5s6.1-26.2,15.3-33.6
						C161.4,707.6,173.3,709.9,179.4,717.4L179.4,717.4L179.4,717.4z"/>
				</g>
			</g>
		</g>
	</g>
	<path style="clip-path:url(#SVGID_00000150791331473039107000000018371924021827744949_);fill:#FFF0ED;" d="M360.8,551.8
		L360.8,551.8V-729.4H0V668.4c6.9-1.3,14.3-2.9,21.5-2.3c18.4,1.7,18.3,25.2,23.8,45.6c2.9,11,15.1,26.1,31.7,30
		c17.8,4.2,39.2-6.7,52.5-19.2c49.4-46.5,62-1.1,82.7-4.2c16-2.5,13.3-12,28.9-25.1c12-8.5,30-9,51.2,11.3
		c18.5,17.8,50.2,16.8,68.5-0.3V551.8L360.8,551.8z"/>
	<path style="clip-path:url(#SVGID_00000150791331473039107000000018371924021827744949_);fill:#FFF0ED;" d="M282.6,715.7
		c12.8,10.8,20.7,21.2,7.5,36.9c-13.1,15.7-34.2,19.7-46.9,8.9c-12.8-10.8-12.4-32.1,0.7-47.8C257,698.2,269.8,705,282.6,715.7
		L282.6,715.7L282.6,715.7z"/>
	<g style="clip-path:url(#SVGID_00000150791331473039107000000018371924021827744949_);">
		<g>
			<circle class="st2" cx="313.3" cy="821.8" r="9.5"/>
		</g>
	</g>
	<g style="clip-path:url(#SVGID_00000150791331473039107000000018371924021827744949_);">
		<g>
			<circle class="st2" cx="335.9" cy="945.8" r="9.5"/>
		</g>
	</g>
	<g style="clip-path:url(#SVGID_00000150791331473039107000000018371924021827744949_);">
		<g>
			<circle class="st2" cx="211.9" cy="1162.7" r="9.5"/>
		</g>
	</g>
	<g style="clip-path:url(#SVGID_00000150791331473039107000000018371924021827744949_);">
		<g>
			<circle class="st2" cx="30.1" cy="783.2" r="15.4"/>
		</g>
	</g>
	<g style="clip-path:url(#SVGID_00000150791331473039107000000018371924021827744949_);">
		<g>
			<circle class="st2" cx="206.2" cy="763.8" r="14.4"/>
		</g>
	</g>
	<g style="clip-path:url(#SVGID_00000150791331473039107000000018371924021827744949_);">
		<g>
			<circle class="st2" cx="311.9" cy="1143.5" r="14.4"/>
		</g>
	</g>
	<g style="clip-path:url(#SVGID_00000150791331473039107000000018371924021827744949_);">
		<g>
			<path class="st2" d="M323.5,787.2c0.7,7.4-6.4,14.5-15.6,11.8s-22.1-15.9-20.4-21.8c1.7-5.9,10.6-8.6,19.8-5.9
				C316.5,773.8,323,781,323.5,787.2L323.5,787.2z"/>
		</g>
	</g>
	<g style="clip-path:url(#SVGID_00000150791331473039107000000018371924021827744949_);">
		<g>
			<path class="st2" d="M76.1,781.8c-7.4-7.2-6.1-21.1,6-26.5s37.7-2.9,41.2,5s-3.5,18.6-15.7,24C95.6,789.7,82.3,787.8,76.1,781.8
				L76.1,781.8z"/>
		</g>
	</g>
	<g style="clip-path:url(#SVGID_00000150791331473039107000000018371924021827744949_);">
		<g>
			<path class="st2" d="M287.1,1003.8c-9.5-4.2-13-17.7-3.5-26.9s34.3-15.8,40.3-9.7s3.2,18.7-6.3,28
				C308.1,1004.5,295,1007.3,287.1,1003.8L287.1,1003.8z"/>
		</g>
	</g>
	<g style="clip-path:url(#SVGID_00000150791331473039107000000018371924021827744949_);">
		<g>
			<path class="st2" d="M325.9,893.5c9.2,9.4,5.4,26.9,1.7,30.5c-3.7,3.6-17.9,1.9-27.2-7.5c-9.2-9.4-9.9-22.9-6.2-26.6
				S316.7,884.1,325.9,893.5L325.9,893.5z"/>
		</g>
	</g>
	<g style="clip-path:url(#SVGID_00000150791331473039107000000018371924021827744949_);">
		<g>
			<path class="st2" d="M235.5,799.9c1.2-8.8,9.5-16.3,20.3-14.8s29.2,10.4,28,19.2s-21.7,14.1-32.4,12.6
				C240.7,815.4,234.3,808.7,235.5,799.9L235.5,799.9z"/>
		</g>
	</g>
	
		<rect x="4.3" y="-281.2" style="clip-path:url(#SVGID_00000150791331473039107000000018371924021827744949_);fill:none;" width="360.8" height="1488.5"/>
	<g style="clip-path:url(#SVGID_00000150791331473039107000000018371924021827744949_);">
		<g>
			<g>
				<g>
					<defs>
						<rect id="SVGID_00000136390793670597415560000016241165335236021685_" x="4.3" y="-222.4" width="360.8" height="1429.6"/>
					</defs>
					<clipPath id="SVGID_00000178164112612998371890000004018934338470415500_">
						<use xlink:href="#SVGID_00000136390793670597415560000016241165335236021685_"  style="overflow:visible;"/>
					</clipPath>
					<g style="clip-path:url(#SVGID_00000178164112612998371890000004018934338470415500_);">
						<circle class="st2" cx="52" cy="1194.9" r="10.3"/>
					</g>
				</g>
			</g>
		</g>
	</g>
	<g style="clip-path:url(#SVGID_00000150791331473039107000000018371924021827744949_);">
		<g>
			<g>
				<g>
					<defs>
						<rect id="SVGID_00000124862406526129447030000013064305734997395094_" x="4.3" y="-222.4" width="360.8" height="1429.6"/>
					</defs>
					<clipPath id="SVGID_00000015336690139433304070000007496242499561620147_">
						<use xlink:href="#SVGID_00000124862406526129447030000013064305734997395094_"  style="overflow:visible;"/>
					</clipPath>
					<g style="clip-path:url(#SVGID_00000015336690139433304070000007496242499561620147_);">
						<circle class="st2" cx="330.8" cy="1185.1" r="11.3"/>
					</g>
				</g>
			</g>
		</g>
	</g>
	<g style="clip-path:url(#SVGID_00000150791331473039107000000018371924021827744949_);">
		<g>
			<g>
				<g>
					<defs>
						<rect id="SVGID_00000177458229737516339440000016327910271100856213_" x="4.3" y="-222.4" width="360.8" height="1429.6"/>
					</defs>
					<clipPath id="SVGID_00000155845662232172525340000012882269258561651120_">
						<use xlink:href="#SVGID_00000177458229737516339440000016327910271100856213_"  style="overflow:visible;"/>
					</clipPath>
					<g style="clip-path:url(#SVGID_00000155845662232172525340000012882269258561651120_);">
						<path class="st2" d="M22,1166.4c-6.4-2-12.5-10.6-13.2-21s4.2-19.2,10.9-19.6c6.7-0.4,17.7,16.3,18.4,26.7
							S29.7,1168.9,22,1166.4L22,1166.4z"/>
					</g>
				</g>
			</g>
		</g>
	</g>
	<g style="clip-path:url(#SVGID_00000150791331473039107000000018371924021827744949_);">
		<g>
			<g>
				<defs>
					<rect id="SVGID_00000053503462918194799720000003302586618349192114_" x="4.3" y="-222.4" width="360.8" height="1429.6"/>
				</defs>
				<clipPath id="SVGID_00000074443333311459772280000016863474000873450637_">
					<use xlink:href="#SVGID_00000053503462918194799720000003302586618349192114_"  style="overflow:visible;"/>
				</clipPath>
				<g style="clip-path:url(#SVGID_00000074443333311459772280000016863474000873450637_);">
					<path class="st2" d="M183.7,1166.1c6.1,7.5,4,17.4-5.2,24.8c-9.2,7.4-31.2,14-37.3,6.5s6.1-26.2,15.3-33.6
						C165.7,1156.3,177.6,1158.6,183.7,1166.1L183.7,1166.1L183.7,1166.1z"/>
				</g>
			</g>
		</g>
	</g>
	<path style="clip-path:url(#SVGID_00000150791331473039107000000018371924021827744949_);fill:#FFF0ED;" d="M286.9,1164.4
		c12.8,10.8,20.7,21.2,7.5,36.9c-13.1,15.7-34.2,19.7-46.9,8.9c-12.8-10.8-12.4-32.1,0.7-47.8
		C261.3,1146.9,274.1,1153.7,286.9,1164.4L286.9,1164.4L286.9,1164.4z"/>
	<g style="clip-path:url(#SVGID_00000150791331473039107000000018371924021827744949_);">
		<g>
			<path class="st2" d="M327.8,1235.9c0.7,7.4-6.4,14.5-15.6,11.8c-9.2-2.7-22.1-15.9-20.4-21.8s10.6-8.6,19.8-5.9
				C320.8,1222.5,327.3,1229.7,327.8,1235.9L327.8,1235.9z"/>
		</g>
	</g>
	<g style="clip-path:url(#SVGID_00000150791331473039107000000018371924021827744949_);">
		<g>
			<path class="st2" d="M68,963.4c13.9-11.7,27.9-19.2,42.2-2.1s14.7,40.4,0.8,52c-13.9,11.7-36.8,7.3-51.1-9.7S54.1,975.1,68,963.4
				L68,963.4z"/>
		</g>
	</g>
	<g style="clip-path:url(#SVGID_00000150791331473039107000000018371924021827744949_);">
		<g>
			<path class="st2" d="M143.7,813.1c2.5-1.5,4.8-3.4,6.9-5.3c12.8-11.8,26-18.9,52.7-9.5c18.5,6.5,23.4,23.3,39.6,28.1
				s26,5.3,37.5,4.6s26,3.8,27.2,21.1c0,17.1-20.3,22-26.7,30.4s-0.4,21.8-6.1,30.9s-18.4,1.2-30,2.6c-11.6,1.4-11.1,16.2-14.3,29.2
				c-1.7,7-9.1,16.7-19.6,19.5c-11.2,3-24.9-3.5-33.5-11.2c-32-28.6-39.2,0.3-52.4-1.3c-10.2-1.3-8.6-7.4-18.7-15.4
				c-7.7-5.2-19.1-5.2-32.2,8c-13,13.2-37.4,11.2-47.9-4.2c-11-17.3,8.7-26.9-4-45.9c-1-1.5-1.8-3-2.9-4.4
				C-2,863.5,19.9,843.9,42,849.9c17.8,4.9,30.4-7.3,33.3-19.2C82.3,801.9,118.2,829,143.7,813.1L143.7,813.1z"/>
		</g>
	</g>
	<g style="clip-path:url(#SVGID_00000150791331473039107000000018371924021827744949_);">
		<g>
			<path class="st2" d="M183.1,1071.3c0.2-14.2,10.6-21.4,10.2-33.7c-0.4-12.2-2.3-19.1-5.5-26.8s-3.4-18.7,8.2-23.5
				c11.8-3.9,19.8,8.9,27.1,11.3c7.2,2.4,15.1-4.7,22.7-2.9s22.4,23.9,32.1,23.1c5.2-0.5,13.6,2.4,17.9,8.9c4.6,7,3.3,17.9,0,25.6
				c-12.2,28.6,8.4,30.3-11.3,65.6C259.6,1163.5,167.4,1142.8,183.1,1071.3z"/>
		</g>
	</g>
	<g style="clip-path:url(#SVGID_00000150791331473039107000000018371924021827744949_);">
		<g>
			<circle class="st2" cx="239.4" cy="972.1" r="7.2"/>
		</g>
	</g>
	<g style="clip-path:url(#SVGID_00000150791331473039107000000018371924021827744949_);">
		<g>
			<circle class="st2" cx="176" cy="1033.6" r="7.2"/>
		</g>
	</g>
	<g style="clip-path:url(#SVGID_00000150791331473039107000000018371924021827744949_);">
		<g>
			<circle class="st2" cx="35.8" cy="1229.9" r="7.2"/>
		</g>
	</g>
	<g style="clip-path:url(#SVGID_00000150791331473039107000000018371924021827744949_);">
		<g>
			<circle class="st2" cx="296" cy="941.4" r="7.2"/>
		</g>
	</g>
	<g style="clip-path:url(#SVGID_00000150791331473039107000000018371924021827744949_);">
		<g>
			<circle class="st2" cx="330.5" cy="1014.7" r="7.2"/>
		</g>
	</g>
	<g style="clip-path:url(#SVGID_00000150791331473039107000000018371924021827744949_);">
		<g>
			<circle class="st2" cx="344.7" cy="809.9" r="7.2"/>
		</g>
	</g>
	<g style="clip-path:url(#SVGID_00000150791331473039107000000018371924021827744949_);">
		<g>
			<circle class="st2" cx="78" cy="802.9" r="7.9"/>
		</g>
	</g>
	<g style="clip-path:url(#SVGID_00000150791331473039107000000018371924021827744949_);">
		<g>
			<path class="st2" d="M167.4,1003c0.1,5.6-5.6,10.5-12.4,8c-6.8-2.5-15.8-13.2-14.2-17.6c1.6-4.4,8.4-5.9,15.2-3.4
				C162.8,992.6,167.3,998.3,167.4,1003L167.4,1003z"/>
		</g>
	</g>
	<g style="clip-path:url(#SVGID_00000150791331473039107000000018371924021827744949_);">
		<g>
			<path class="st2" d="M350.8,772.2c0.1,5.6-5.6,10.5-12.4,8c-6.8-2.5-15.8-13.2-14.2-17.6c1.6-4.4,8.4-5.9,15.2-3.4
				C346.2,761.8,350.7,767.5,350.8,772.2L350.8,772.2z"/>
		</g>
	</g>
	<g style="clip-path:url(#SVGID_00000150791331473039107000000018371924021827744949_);">
		<g>
			<path class="st2" d="M348.6,869.2c0.1,5.6-5.6,10.5-12.4,8S320.4,864,322,859.6c1.6-4.4,8.4-5.9,15.2-3.4
				C344,858.8,348.5,864.5,348.6,869.2L348.6,869.2z"/>
		</g>
	</g>
	<g style="clip-path:url(#SVGID_00000150791331473039107000000018371924021827744949_);">
		<g>
			<path class="st2" d="M173.7,776.3c0.1,5.6-5.6,10.5-12.4,8c-6.8-2.5-15.8-13.2-14.2-17.6c1.6-4.4,8.4-5.9,15.2-3.4
				S173.6,771.6,173.7,776.3L173.7,776.3z"/>
		</g>
	</g>
	<g style="clip-path:url(#SVGID_00000150791331473039107000000018371924021827744949_);">
		<g>
			<path class="st2" d="M109.3,805.6c-3.7-4.2-2.5-11.7,4.3-14.2s20.6-0.1,22.2,4.3c1.6,4.4-2.6,10-9.5,12.4
				C119.6,810.7,112.5,809.1,109.3,805.6L109.3,805.6z"/>
		</g>
	</g>
	<g style="clip-path:url(#SVGID_00000150791331473039107000000018371924021827744949_);">
		<g>
			<path class="st2" d="M269.5,931.5c6.4,7.6,2.6,20.6-0.4,23.1s-13.6,0.4-20.1-7.2s-6.2-17.8-3.2-20.4
				C248.8,924.5,263.1,923.9,269.5,931.5L269.5,931.5z"/>
		</g>
	</g>
	<g style="clip-path:url(#SVGID_00000150791331473039107000000018371924021827744949_);">
		<g>
			<path class="st2" d="M139.3,960.2c1.4-6.6,8.1-11.8,16.1-10c8,1.7,21.5,9.5,20.1,16c-1.4,6.6-17.1,9.5-25.1,7.7
				C142.3,972.2,137.9,966.7,139.3,960.2L139.3,960.2z"/>
		</g>
	</g>
	<g style="clip-path:url(#SVGID_00000150791331473039107000000018371924021827744949_);">
		<g>
			<path class="st2" d="M38.6,810.4c8-5.8,15.9-9.3,23,0.5s6.4,22.5-1.6,28.3s-20.3,2.5-27.4-7.3S30.6,816.2,38.6,810.4L38.6,810.4z
				"/>
		</g>
	</g>
	<path style="clip-path:url(#SVGID_00000150791331473039107000000018371924021827744949_);fill:#FFF0ED;" d="M6.8,1047.9
		c0-3.6,1.3-6.7,3.3-9.5c3.7-5.2,5.4-11,5.2-17.3c-0.4-11,9.2-15.4,17.4-13.6c4.4,1,8.2,3.3,11.7,6c6.8,5.1,13.5,10.3,20.2,15.5
		c3,2.3,5.6,5,7.3,8.6c3,6.4,2.1,12.7-2.9,17.7c-3.8,3.9-8.6,6.3-14,7.1c-3.1,0.4-5.9-0.3-8.4-2.1c-1.7-1.2-3.2-2.5-4.8-3.8
		c-3.5-2.9-7.3-3.1-11.3-1.1c-2.2,1.1-4.4,2.4-6.6,3.5C15.3,1062.9,6.8,1057.5,6.8,1047.9z"/>
	<path style="clip-path:url(#SVGID_00000150791331473039107000000018371924021827744949_);fill:#FFF0ED;" d="M64.2,1120.3
		c-8.9,0-16.1-1.6-22.2-6.1c-5.7-4.2-9.2-9.6-9.1-17c0.1-6.3,4-11.5,10-13.3c3.2-1,6.5-1.2,9.7-1.4c5.9-0.3,11.1-2.2,15.6-6
		c1.2-1.1,2.5-2.1,3.8-3c8-5.7,18.8-3.1,22.5,5.9c4.3,10.4,4,20.8-3.2,30c-3.7,4.7-8.9,7.2-14.6,8.8
		C72.2,1119.6,67.6,1120.5,64.2,1120.3z"/>
	<path style="clip-path:url(#SVGID_00000150791331473039107000000018371924021827744949_);fill:#FFF0ED;" d="M160.7,1056.1
		c-0.1,7.5-2.1,14.3-7,20.1c-4.1,4.9-12.4,7.8-18.9,0.8c-1.3-1.4-2.6-2.6-3.9-4c-3.2-3.6-7.3-4.7-12-4.2c-2.4,0.2-4.7,0.2-7-0.3
		c-5.9-1.2-9.7-7.6-8.6-13.9c1-5.8,4.5-10,8.8-13.6c7-5.9,15-9.1,24.1-9.6c16.4-1.1,24,11.9,24.5,22.4
		C160.7,1054.4,160.7,1055.2,160.7,1056.1z"/>
	<path style="clip-path:url(#SVGID_00000150791331473039107000000018371924021827744949_);fill:#FFF0ED;" d="M90.4,1151.6
		c4.2,5.3,9.7,9.4,16.2,12.4c4.6,2.1,8.6,5,11.1,9.5c2.5,4.3,2.9,8.9,1,13.6c-1.5,3.6-4.2,6-8.2,5.6c-7.1-0.7-11.5,2.4-14.5,8.6
		c-0.9,1.9-2.2,3.6-4.1,4.7c-4.2,2.6-8.6,1.3-10.8-3.1c-1.6-3.3-2.3-6.9-2.1-10.5c0.5-8.9-3.2-16.3-8.2-23.2
		c-2.8-3.9-5.5-7.9-6.7-12.7c-0.8-3.3-0.9-6.6,0.6-9.8c2.4-5.1,7.1-7.2,12.5-5.5c3.2,1,5.9,2.9,8.2,5.2
		C87.1,1148,88.6,1149.7,90.4,1151.6z"/>
	<path style="clip-path:url(#SVGID_00000150791331473039107000000018371924021827744949_);fill:#FFF0ED;" d="M306.9,1099.8
		c-0.2-3.8,0.4-7,1.1-10.1c1.1-5.4,1.5-10.8,1.1-16.3c-0.3-4.1-0.7-8.3-0.2-12.4c1.4-12.7,14.7-20.7,25.9-15.5
		c6.3,2.9,9.6,9.6,7.9,16.3c-0.5,2.2-1.3,4.4-2.1,6.6c-1.8,4.8-1.4,9.3,1.1,13.8c1.4,2.4,2.7,4.7,3.4,7.4c1.2,4.8-0.6,8.5-5.2,10.3
		c-2.2,0.9-4.5,1.3-6.8,1.9c-2.9,0.8-5.4,2.2-7.3,4.6c-0.8,0.9-1.6,1.8-2.4,2.6c-5.9,5.8-12.3,2-14.8-2.5
		C307.5,1104.2,306.9,1101.8,306.9,1099.8z"/>
	<path style="clip-path:url(#SVGID_00000150791331473039107000000018371924021827744949_);fill:#FFF0ED;" d="M119.3,1153.9
		c-4.1,0-7.1-3.1-7.9-7.7c-0.4-2.5-0.3-5,0.3-7.4c2.2-9,3.6-18.1,7.1-26.7c1.6-4.1,3.7-7.8,7-10.9c6-5.6,18.2-6.6,22.8,4.9
		c1,2.4,1.7,4.9,2.4,7.4c0.9,3.7,2.6,6.9,5.3,9.7c1.8,1.8,3.3,3.9,4.2,6.3c3,7.7-2.7,14.9-10.9,13.8c-2-0.2-3.9-0.4-5.9-0.7
		c-4.4-0.5-8,1-11.3,3.8c-2.8,2.4-5.5,4.9-8.9,6.4C122.2,1153.5,120.7,1154,119.3,1153.9z"/>
</g>
</svg>
